<?xml version="1.0" encoding="utf-8"?>
<!-- Generator: Adobe Illustrator 22.0.1, SVG Export Plug-In . SVG Version: 6.00 Build 0)  -->
<svg version="1.1" id="Layer_1" xmlns="http://www.w3.org/2000/svg" xmlns:xlink="http://www.w3.org/1999/xlink" x="0px" y="0px"
	 viewBox="0 0 200 200" style="enable-background:new 0 0 200 200;" xml:space="preserve" >
<g>
	<path fill="#f4faf2" class="st0" d="M195.3,98.6H5.5C3.6,98.6,2,97,2,95.1v-5c0-1.9,1.6-3.5,3.5-3.5h189.8c1.9,0,3.5,1.6,3.5,3.5v5
		C198.8,97,197.2,98.6,195.3,98.6z"/>
	<path  fill="#f4faf2" class="st0" d="M195.3,138.4H5.5c-1.9,0-3.5-1.6-3.5-3.5v-14.5c0-1.9,1.6-3.5,3.5-3.5h189.8c1.9,0,3.5,1.6,3.5,3.5v14.5
		C198.8,136.8,197.2,138.4,195.3,138.4z"/>
	<path fill="#f4faf2" class="st0" d="M198.8,156.7L198.8,156.7c0,23.8-35.8,43.3-79.5,43.3H81.5C37.8,200,2,180.5,2,156.7L198.8,156.7z"/>
	<path fill="#f4faf2" class="st0" d="M119.3,0H81.5C37.8,0,2,30.7,2,68.3v0l196.8,0C198.8,30.7,163,0,119.3,0z M52.7,36.4l-3,2.2
		c-4.2,3.1-15.7,1.9-15.7,1.9s0.4-10,4.6-13.1l3-2.2c4.2-3.1,10.1-3.1,13.1,0S56.8,33.3,52.7,36.4z M96.4,61.6
		c0,0-11.5-1.6-14.6-5.5l-2.2-2.9c-3-3.9-2.3-9,1.6-11.2c3.9-2.2,9.6-0.9,12.7,3.1l2.2,2.9C99.1,51.8,96.4,61.6,96.4,61.6z
		 M119.2,18.9l-3,2.2c-4.2,3.1-15.7,1.9-15.7,1.9h0c0,0,0.4-10,4.6-13.1l3-2.2c4.2-3.1,10.1-3.1,13.1,0v0
		C124.2,10.8,123.3,15.9,119.2,18.9z M167.9,52.8c0,0-11.4-1.9-14.3-5.9l-2.1-2.9c-2.9-4-2-9,2-11.2h0c4-2.1,9.6-0.6,12.5,3.4
		l2.1,2.9C171,43.2,167.9,52.8,167.9,52.8z"/>
</g>
</svg>
