<?xml version="1.0" encoding="utf-8"?>
<!-- Generator: Adobe Illustrator 22.0.1, SVG Export Plug-In . SVG Version: 6.00 Build 0)  -->
<svg version="1.1" id="Layer_1" xmlns="http://www.w3.org/2000/svg" xmlns:xlink="http://www.w3.org/1999/xlink" x="0px" y="0px"
	 viewBox="0 0 131.4 167.7" style="enable-background:new 0 0 131.4 167.7;" xml:space="preserve">
<style type="text/css">
	.st0{fill:#ED1E32;}
	.st1{fill:#F3F9EE;}
</style>
<g>
	<path class="st0" d="M65.5,164.5c0,0-64.8-50.9-64.8-93.2S28.6,1.7,65.5,1.7s64.8,27.4,64.8,69.6S65.5,164.5,65.5,164.5"/>
	<g>
		<path class="st1" d="M109.9,60.6H21.1c-0.9,0-1.6-0.7-1.6-1.6v-2.3c0-0.9,0.7-1.6,1.6-1.6h88.8c0.9,0,1.6,0.7,1.6,1.6V59
			C111.5,59.8,110.8,60.6,109.9,60.6z"/>
		<path class="st1" d="M109.9,79.2H21.1c-0.9,0-1.6-0.7-1.6-1.6v-6.8c0-0.9,0.7-1.6,1.6-1.6h88.8c0.9,0,1.6,0.7,1.6,1.6v6.8
			C111.5,78.5,110.8,79.2,109.9,79.2z"/>
		<path class="st1" d="M111.5,87.8L111.5,87.8c0,11.1-16.7,20.3-37.2,20.3H56.6c-20.4,0-37.2-9.1-37.2-20.3H111.5z"/>
		<path class="st1" d="M74.3,14.5H56.6c-20.4,0-37.2,14.4-37.2,32l0,0h92.1C111.5,28.8,94.8,14.5,74.3,14.5z M43.2,31.5l-1.4,1
			c-2,1.5-7.3,0.9-7.3,0.9s0.2-4.7,2.2-6.1l1.4-1c2-1.5,4.7-1.5,6.1,0C45.5,27.7,45.1,30,43.2,31.5z M63.6,43.3c0,0-5.4-0.7-6.8-2.6
			l-1-1.4c-1.4-1.8-1.1-4.2,0.7-5.2c1.8-1,4.5-0.4,5.9,1.5l1,1.4C64.9,38.7,63.6,43.3,63.6,43.3z M74.3,23.3l-1.4,1
			c-2,1.5-7.3,0.9-7.3,0.9l0,0c0,0,0.2-4.7,2.2-6.1l1.4-1c2-1.5,4.7-1.5,6.1,0l0,0C76.6,19.5,76.2,21.9,74.3,23.3z M97.1,39.2
			c0,0-5.3-0.9-6.7-2.8l-1-1.4c-1.4-1.9-0.9-4.2,0.9-5.2l0,0c1.9-1,4.5-0.3,5.8,1.6l1,1.4C98.5,34.7,97.1,39.2,97.1,39.2z"/>
	</g>
</g>
</svg>
